#!OML:ASF E:\motion texture\Top Level 1\Subject 1\Session 1\male.ASF
:FULLY-SPECIFIED
:DEGREES
111
root 17.595 17.7058 5.43136 152.928 -78.979 -147.444
lowerback -0.531089 0.651237 5.49784
upperback -3.16722 0.862954 4.87744
thorax -2.96434 0.276306 1.94365
lowerneck -13.3846 -4.62196 -5.86392
upperneck 20.8858 -7.97201 10.3543
head 9.44959 -3.28018 3.54367
rclavicle -7.55382e-015 5.00937e-014
rhumerus 5.14139 -51.2471 -10.8533
rradius 54.5352
rwrist -22.4719
rhand -11.6725 -27.9218
rfingers 7.12502
rthumb 14.3726 -57.4042
lclavicle -7.55382e-015 5.00937e-014
lhumerus 3.74092 44.6836 6.93461
lradius 46.8197
lwrist 19.7792
lhand -10.0752 23.9367
lfingers 7.12502
lthumb 15.9112 53.303
rfemur 2.5396 3.32313 25.3082
rtibia 34.5465
rfoot -9.37187 -5.08813
rtoes -13.482
lfemur -25.8324 -0.311232 -11.4177
ltibia 18.9927
lfoot 1.32862 7.1385
ltoes -1.3617
112
root 17.441 17.7215 5.44553 153.623 -79.1903 -148.378
lowerback -0.501348 0.578584 5.24194
upperback -3.10127 0.76863 4.75972
thorax -2.91369 0.240007 1.9645
lowerneck -13.3641 -4.59985 -5.86426
upperneck 20.9308 -7.93875 10.3182
head 9.45648 -3.26879 3.53644
rclavicle 1.04362e-014 -8.74653e-015
rhumerus 2.77795 -50.45 -10.8408
rradius 55.6864
rwrist -22.5877
rhand -12.0685 -27.972
rfingers 7.12502
rthumb 13.991 -57.4811
lclavicle 1.04362e-014 -8.74653e-015
lhumerus 3.42786 44.4808 8.3324
lradius 47.2565
lwrist 19.2302
lhand -10.0849 23.7747
lfingers 7.12502
lthumb 15.9019 53.1418
rfemur 1.6922 2.92391 24.6819
rtibia 36.7418
rfoot -7.18136 -4.9604
rtoes -12.6032
lfemur -25.2105 -0.307979 -11.9514
ltibia 19.3181
lfoot 0.868296 6.67765
ltoes -0.532847
113
root 17.2887 17.7366 5.45903 154.462 -79.3826 -149.458
lowerback -0.468852 0.520981 4.96056
upperback -3.02976 0.694044 4.64303
thorax -2.85872 0.214105 2.00042
lowerneck -13.3305 -4.58655 -5.87809
upperneck 20.9329 -7.91115 10.2908
head 9.44744 -3.26094 3.53344
rclavicle 9.39258e-015 4.77083e-014
rhumerus 0.397381 -49.5874 -10.8983
rradius 56.8332
rwrist -22.6706
rhand -12.3831 -28.0098
rfingers 7.12502
rthumb 13.6878 -57.5397
lclavicle 9.39258e-015 4.77083e-014
lhumerus 3.12068 44.2117 9.79825
lradius 47.6907
lwrist 18.6945
lhand -10.1525 23.7106
lfingers 7.12502
lthumb 15.8368 53.0829
rfemur 0.758815 2.55599 24.0665
rtibia 38.98
rfoot -4.66895 -4.9653
rtoes -11.2548
lfemur -24.5153 -0.300663 -12.4793
ltibia 19.5104
lfoot 0.445993 6.24743
ltoes 0.262583
114
root 17.138 17.7501 5.47207 155.587 -79.5567 -150.821
lowerback -0.446575 0.477237 4.63901
upperback -2.95511 0.636677 4.521
thorax -2.79475 0.197709 2.0531
lowerneck -13.2728 -4.57407 -5.90717
upperneck 20.8944 -7.87753 10.2683
head 9.41995 -3.25208 3.53543
rclavicle -3.10104e-014 5.96354e-014
rhumerus -1.94828 -48.6756 -11.0763
rradius 57.9648
rwrist -22.6771
rhand -12.6097 -28.0717
rfingers 7.12502
rthumb 13.4694 -57.6161
lclavicle -3.10104e-014 5.96354e-014
lhumerus 2.80616 43.8724 11.311
lradius 48.1096
lwrist 18.15
lhand -10.2722 23.7499
lfingers 7.12502
lthumb 15.7215 53.1313
rfemur -0.243721 2.23705 23.4449
rtibia 41.2348
rfoot -1.90836 -5.06061
rtoes -9.37995
lfemur -23.7565 -0.278116 -13.0351
ltibia 19.5764
lfoot 0.0771535 5.86939
ltoes 1.03256
115
root 16.9893 17.7613 5.48457 157.092 -79.7206 -152.551
lowerback -0.440657 0.44315 4.25941
upperback -2.88425 0.590899 4.38913
thorax -2.72566 0.188251 2.12811
lowerneck -13.2079 -4.56117 -5.95452
upperneck 20.841 -7.83663 10.2446
head 9.38591 -3.24157 3.54098
rclavicle -6.63444e-015 2.22639e-014
rhumerus -4.22413 -47.7166 -11.4086
rradius 59.0649
rwrist -22.6038
rhand -12.823 -28.1724
rfingers 7.12502
rthumb 13.2638 -57.7304
lclavicle -6.63444e-015 2.22639e-014
lhumerus 2.47712 43.4638 12.8599
lradius 48.5058
lwrist 17.5847
lhand -10.4368 23.8704
lfingers 7.12502
lthumb 15.563 53.2642
rfemur -1.31229 1.96527 22.7993
rtibia 43.4916
rfoot 0.997122 -5.20331
rtoes -6.8569
lfemur -22.9654 -0.235346 -13.6453
ltibia 19.546
lfoot -0.236537 5.54266
ltoes 1.76076
116
root 16.8426 17.77 5.49646 159.011 -79.8752 -154.679
lowerback -0.451671 0.412529 3.81806
upperback -2.82151 0.548789 4.2459
thorax -2.65562 0.181649 2.22622
lowerneck -13.1336 -4.54118 -6.0179
upperneck 20.7868 -7.78139 10.2174
head 9.34893 -3.22618 3.55005
rclavicle -1.12562e-014 2.70347e-014
rhumerus -6.39463 -46.7233 -11.9256
rradius 60.1185
rwrist -22.4384
rhand -13.0099 -28.3243
rfingers 7.12502
rthumb 13.0837 -57.8939
lclavicle -1.12562e-014 2.70347e-014
lhumerus 2.11538 42.9813 14.421
lradius 48.876
lwrist 17.0213
lhand -10.6554 24.0504
lfingers 7.12502
lthumb 15.3524 53.4605
rfemur -2.43192 1.7402 22.1263
rtibia 45.7363
rfoot 3.87092 -5.37412
rtoes -3.87277
lfemur -22.1555 -0.179545 -14.3175
ltibia 19.435
lfoot -0.51612 5.26341
ltoes 2.44698
117
root 16.6984 17.7763 5.50753 161.351 -80.0281 -157.213
lowerback -0.479849 0.376496 3.31135
upperback -2.76634 0.498729 4.08839
thorax -2.58374 0.172114 2.34675
lowerneck -13.0632 -4.5108 -6.08116
upperneck 20.7482 -7.70905 10.1729
head 9.3157 -3.20409 3.55543
rclavicle -2.01766e-014 8.74653e-015
rhumerus -8.43553 -45.7084 -12.65
rradius 61.1082
rwrist -22.1896
rhand -13.1734 -28.5094
rfingers 7.12502
rthumb 12.9261 -58.0891
lclavicle -2.01766e-014 8.74653e-015
lhumerus 1.69667 42.423 15.9661
lradius 49.2289
lwrist 16.4905
lhand -10.9097 24.2643
lfingers 7.12502
lthumb 15.1075 53.693
rfemur -3.59283 1.54982 21.4215
rtibia 47.9586
rfoot 6.48319 -5.64139
rtoes -1.07147
lfemur -21.343 -0.124917 -15.0573
ltibia 19.2637
lfoot -0.781082 5.02468
ltoes 3.06646
